<mxfile host="65bd71144e">
    <diagram id="4GABfhdbB-AV74wN0VJq" name="Страница 1">
        <mxGraphModel dx="746" dy="1162" grid="1" gridSize="10" guides="1" tooltips="1" connect="1" arrows="1" fold="1" page="1" pageScale="1" pageWidth="1169" pageHeight="827" math="0" shadow="0">
            <root>
                <mxCell id="0"/>
                <mxCell id="1" parent="0"/>
                <mxCell id="40" style="edgeStyle=none;html=1;exitX=0.5;exitY=1;exitDx=0;exitDy=0;fontSize=11;fontColor=#F0F0F0;" edge="1" parent="1" source="3">
                    <mxGeometry relative="1" as="geometry">
                        <mxPoint x="585" y="80" as="targetPoint"/>
                    </mxGeometry>
                </mxCell>
                <mxCell id="3" value="ПО" style="rounded=0;whiteSpace=wrap;html=1;" vertex="1" parent="1">
                    <mxGeometry x="525" width="120" height="60" as="geometry"/>
                </mxCell>
                <mxCell id="8" style="edgeStyle=none;html=1;exitX=0;exitY=0.5;exitDx=0;exitDy=0;fontSize=11;fontColor=#F0F0F0;entryX=-0.042;entryY=0.65;entryDx=0;entryDy=0;entryPerimeter=0;" edge="1" parent="1" source="4" target="7">
                    <mxGeometry relative="1" as="geometry">
                        <mxPoint x="40" y="130" as="targetPoint"/>
                        <Array as="points">
                            <mxPoint x="60" y="130"/>
                            <mxPoint x="60" y="360"/>
                            <mxPoint x="60" y="470"/>
                        </Array>
                    </mxGeometry>
                </mxCell>
                <mxCell id="4" value="&lt;span style=&quot;text-align: start; font-size: 11px; font-family: Calibri, sans-serif;&quot;&gt;Подсистема Управления Пользователями&lt;/span&gt;&lt;span style=&quot;font-size: 11px; text-align: start;&quot;&gt;&lt;/span&gt;" style="rounded=0;whiteSpace=wrap;html=1;fontColor=#F0F0F0;fontSize=11;" vertex="1" parent="1">
                    <mxGeometry x="100" y="100" width="120" height="60" as="geometry"/>
                </mxCell>
                <mxCell id="5" value="&lt;span style=&quot;text-align: start; font-size: 11px; font-family: Calibri, sans-serif;&quot;&gt;Модуль Регистрации и Аутентификации&lt;/span&gt;&lt;span style=&quot;font-size: 11px; text-align: start;&quot;&gt;&lt;/span&gt;" style="rounded=0;whiteSpace=wrap;html=1;fontColor=#F0F0F0;fontSize=11;" vertex="1" parent="1">
                    <mxGeometry x="100" y="210" width="120" height="60" as="geometry"/>
                </mxCell>
                <mxCell id="6" value="&lt;span style=&quot;text-align: start; font-size: 11px; font-family: Calibri, sans-serif;&quot;&gt;Модуль Управления Профилем&lt;/span&gt;&lt;span style=&quot;font-size: 11px; text-align: start;&quot;&gt;&lt;/span&gt;" style="rounded=0;whiteSpace=wrap;html=1;fontColor=#F0F0F0;fontSize=11;" vertex="1" parent="1">
                    <mxGeometry x="100" y="320" width="120" height="60" as="geometry"/>
                </mxCell>
                <mxCell id="7" value="&lt;span style=&quot;text-align: start; font-size: 11px; font-family: Calibri, sans-serif;&quot;&gt;Модуль Управления Доступом&lt;/span&gt;&lt;span style=&quot;font-size: 11px; text-align: start;&quot;&gt;&lt;/span&gt;" style="rounded=0;whiteSpace=wrap;html=1;fontColor=#F0F0F0;fontSize=11;" vertex="1" parent="1">
                    <mxGeometry x="100" y="430" width="120" height="60" as="geometry"/>
                </mxCell>
                <mxCell id="9" value="" style="endArrow=classic;html=1;fontSize=11;fontColor=#F0F0F0;entryX=0;entryY=0.5;entryDx=0;entryDy=0;" edge="1" parent="1" target="6">
                    <mxGeometry width="50" height="50" relative="1" as="geometry">
                        <mxPoint x="60" y="350" as="sourcePoint"/>
                        <mxPoint x="270" y="520" as="targetPoint"/>
                    </mxGeometry>
                </mxCell>
                <mxCell id="10" value="" style="endArrow=classic;html=1;fontSize=11;fontColor=#F0F0F0;entryX=0;entryY=0.5;entryDx=0;entryDy=0;" edge="1" parent="1">
                    <mxGeometry width="50" height="50" relative="1" as="geometry">
                        <mxPoint x="60" y="239.5" as="sourcePoint"/>
                        <mxPoint x="100" y="239.5" as="targetPoint"/>
                    </mxGeometry>
                </mxCell>
                <mxCell id="15" style="edgeStyle=none;html=1;exitX=0;exitY=0.5;exitDx=0;exitDy=0;fontSize=11;fontColor=#F0F0F0;entryX=-0.042;entryY=0.65;entryDx=0;entryDy=0;entryPerimeter=0;" edge="1" parent="1" source="16" target="19">
                    <mxGeometry relative="1" as="geometry">
                        <mxPoint x="260" y="130" as="targetPoint"/>
                        <Array as="points">
                            <mxPoint x="280" y="130"/>
                            <mxPoint x="280" y="360"/>
                            <mxPoint x="280" y="470"/>
                        </Array>
                    </mxGeometry>
                </mxCell>
                <mxCell id="16" value="&lt;span style=&quot;text-align: start; font-size: 11px; font-family: Calibri, sans-serif;&quot;&gt;Подсистема Медицинских Данных&lt;/span&gt;&lt;span style=&quot;font-size: 11px; text-align: start;&quot;&gt;&lt;/span&gt;" style="rounded=0;whiteSpace=wrap;html=1;fontColor=#F0F0F0;fontSize=11;" vertex="1" parent="1">
                    <mxGeometry x="320" y="100" width="120" height="60" as="geometry"/>
                </mxCell>
                <mxCell id="17" value="&lt;span style=&quot;text-align: start; font-size: 11px; font-family: Calibri, sans-serif;&quot;&gt;Модуль Медицинских Записей&lt;/span&gt;&lt;span style=&quot;font-size: 11px; text-align: start;&quot;&gt;&lt;/span&gt;" style="rounded=0;whiteSpace=wrap;html=1;fontColor=#F0F0F0;fontSize=11;" vertex="1" parent="1">
                    <mxGeometry x="320" y="210" width="120" height="60" as="geometry"/>
                </mxCell>
                <mxCell id="18" value="&lt;span style=&quot;font-family: Calibri, sans-serif; text-align: start;&quot;&gt;Модуль Управления Медицинскими Анализами&lt;/span&gt;" style="rounded=0;whiteSpace=wrap;html=1;fontColor=#F0F0F0;fontSize=11;" vertex="1" parent="1">
                    <mxGeometry x="320" y="320" width="120" height="60" as="geometry"/>
                </mxCell>
                <mxCell id="19" value="&lt;span style=&quot;text-align: start; font-size: 11px; font-family: Calibri, sans-serif;&quot;&gt;Модуль Динамики Здоровья&lt;/span&gt;&lt;span style=&quot;font-size: 11px; text-align: start;&quot;&gt;&lt;/span&gt;" style="rounded=0;whiteSpace=wrap;html=1;fontColor=#F0F0F0;fontSize=11;" vertex="1" parent="1">
                    <mxGeometry x="320" y="430" width="120" height="60" as="geometry"/>
                </mxCell>
                <mxCell id="20" value="" style="endArrow=classic;html=1;fontSize=11;fontColor=#F0F0F0;entryX=0;entryY=0.5;entryDx=0;entryDy=0;" edge="1" parent="1" target="18">
                    <mxGeometry width="50" height="50" relative="1" as="geometry">
                        <mxPoint x="280" y="350" as="sourcePoint"/>
                        <mxPoint x="490" y="520" as="targetPoint"/>
                    </mxGeometry>
                </mxCell>
                <mxCell id="21" value="" style="endArrow=classic;html=1;fontSize=11;fontColor=#F0F0F0;entryX=0;entryY=0.5;entryDx=0;entryDy=0;" edge="1" parent="1">
                    <mxGeometry width="50" height="50" relative="1" as="geometry">
                        <mxPoint x="280" y="239.5" as="sourcePoint"/>
                        <mxPoint x="320" y="239.5" as="targetPoint"/>
                    </mxGeometry>
                </mxCell>
                <mxCell id="22" style="edgeStyle=none;html=1;exitX=0;exitY=0.5;exitDx=0;exitDy=0;fontSize=11;fontColor=#F0F0F0;entryX=0;entryY=0.5;entryDx=0;entryDy=0;" edge="1" parent="1" source="23" target="25">
                    <mxGeometry relative="1" as="geometry">
                        <mxPoint x="530" y="469" as="targetPoint"/>
                        <Array as="points">
                            <mxPoint x="480" y="130"/>
                            <mxPoint x="480" y="350"/>
                            <mxPoint x="500" y="350"/>
                        </Array>
                    </mxGeometry>
                </mxCell>
                <mxCell id="23" value="&lt;span style=&quot;text-align: start; font-size: 11px; font-family: Calibri, sans-serif;&quot;&gt;Подсистема Управления Лекарствами&lt;/span&gt;&lt;span style=&quot;font-size: 11px; text-align: start;&quot;&gt;&lt;/span&gt;" style="rounded=0;whiteSpace=wrap;html=1;fontColor=#F0F0F0;fontSize=11;" vertex="1" parent="1">
                    <mxGeometry x="520" y="100" width="120" height="60" as="geometry"/>
                </mxCell>
                <mxCell id="24" value="&lt;span style=&quot;text-align: start; font-size: 11px; font-family: Calibri, sans-serif;&quot;&gt;Модуль Назначения Лекарств&lt;/span&gt;&lt;span style=&quot;font-size: 11px; text-align: start;&quot;&gt;&lt;/span&gt;" style="rounded=0;whiteSpace=wrap;html=1;fontColor=#F0F0F0;fontSize=11;" vertex="1" parent="1">
                    <mxGeometry x="520" y="210" width="120" height="60" as="geometry"/>
                </mxCell>
                <mxCell id="25" value="&lt;span style=&quot;text-align: start; font-size: 11px; font-family: Calibri, sans-serif;&quot;&gt;Модуль Уведомлений о Приеме Лекарств&lt;/span&gt;&lt;span style=&quot;font-size: 11px; text-align: start;&quot;&gt;&lt;/span&gt;" style="rounded=0;whiteSpace=wrap;html=1;fontColor=#F0F0F0;fontSize=11;" vertex="1" parent="1">
                    <mxGeometry x="520" y="320" width="120" height="60" as="geometry"/>
                </mxCell>
                <mxCell id="28" value="" style="endArrow=classic;html=1;fontSize=11;fontColor=#F0F0F0;entryX=0;entryY=0.5;entryDx=0;entryDy=0;" edge="1" parent="1">
                    <mxGeometry width="50" height="50" relative="1" as="geometry">
                        <mxPoint x="480" y="239.5" as="sourcePoint"/>
                        <mxPoint x="520" y="239.5" as="targetPoint"/>
                    </mxGeometry>
                </mxCell>
                <mxCell id="29" style="edgeStyle=none;html=1;exitX=0;exitY=0.5;exitDx=0;exitDy=0;fontSize=11;fontColor=#F0F0F0;entryX=0;entryY=0.5;entryDx=0;entryDy=0;" edge="1" parent="1" source="30" target="32">
                    <mxGeometry relative="1" as="geometry">
                        <mxPoint x="730" y="469" as="targetPoint"/>
                        <Array as="points">
                            <mxPoint x="680" y="130"/>
                            <mxPoint x="680" y="350"/>
                            <mxPoint x="700" y="350"/>
                        </Array>
                    </mxGeometry>
                </mxCell>
                <mxCell id="30" value="&lt;span style=&quot;text-align: start; font-size: 11px; font-family: Calibri, sans-serif;&quot;&gt;Подсистема Отчетности и Аналитики**&lt;/span&gt;&lt;span style=&quot;font-size: 11px; text-align: start;&quot;&gt;&lt;/span&gt;" style="rounded=0;whiteSpace=wrap;html=1;fontColor=#F0F0F0;fontSize=11;" vertex="1" parent="1">
                    <mxGeometry x="720" y="100" width="120" height="60" as="geometry"/>
                </mxCell>
                <mxCell id="31" value="&lt;span style=&quot;text-align: start; font-size: 11px; font-family: Calibri, sans-serif;&quot;&gt;Модуль Статистики и Отчетов&lt;/span&gt;&lt;span style=&quot;font-size: 11px; text-align: start;&quot;&gt;&lt;/span&gt;" style="rounded=0;whiteSpace=wrap;html=1;fontColor=#F0F0F0;fontSize=11;" vertex="1" parent="1">
                    <mxGeometry x="720" y="210" width="120" height="60" as="geometry"/>
                </mxCell>
                <mxCell id="32" value="&lt;span style=&quot;text-align: start; font-size: 11px; font-family: Calibri, sans-serif;&quot;&gt;Модуль Анализа Данных&lt;/span&gt;&lt;span style=&quot;font-size: 11px; text-align: start;&quot;&gt;&lt;/span&gt;" style="rounded=0;whiteSpace=wrap;html=1;fontColor=#F0F0F0;fontSize=11;" vertex="1" parent="1">
                    <mxGeometry x="720" y="320" width="120" height="60" as="geometry"/>
                </mxCell>
                <mxCell id="33" value="" style="endArrow=classic;html=1;fontSize=11;fontColor=#F0F0F0;entryX=0;entryY=0.5;entryDx=0;entryDy=0;" edge="1" parent="1">
                    <mxGeometry width="50" height="50" relative="1" as="geometry">
                        <mxPoint x="680" y="239.5" as="sourcePoint"/>
                        <mxPoint x="720" y="239.5" as="targetPoint"/>
                    </mxGeometry>
                </mxCell>
                <mxCell id="34" style="edgeStyle=none;html=1;exitX=0;exitY=0.5;exitDx=0;exitDy=0;fontSize=11;fontColor=#F0F0F0;entryX=0;entryY=0.5;entryDx=0;entryDy=0;" edge="1" parent="1" source="35" target="37">
                    <mxGeometry relative="1" as="geometry">
                        <mxPoint x="930" y="469" as="targetPoint"/>
                        <Array as="points">
                            <mxPoint x="880" y="130"/>
                            <mxPoint x="880" y="350"/>
                            <mxPoint x="900" y="350"/>
                        </Array>
                    </mxGeometry>
                </mxCell>
                <mxCell id="35" value="&lt;span style=&quot;text-align: start; font-size: 11px; font-family: Calibri, sans-serif;&quot;&gt;Подсистема Интеграции и Совместимости&lt;/span&gt;&lt;span style=&quot;font-size: 11px; text-align: start;&quot;&gt;&lt;/span&gt;" style="rounded=0;whiteSpace=wrap;html=1;fontColor=#F0F0F0;fontSize=11;" vertex="1" parent="1">
                    <mxGeometry x="920" y="100" width="120" height="60" as="geometry"/>
                </mxCell>
                <mxCell id="36" value="&lt;span style=&quot;text-align: start; font-size: 11px; font-family: Calibri, sans-serif;&quot;&gt;Модуль API&lt;/span&gt;&lt;span style=&quot;font-size: 11px; text-align: start;&quot;&gt;&lt;/span&gt;" style="rounded=0;whiteSpace=wrap;html=1;fontColor=#F0F0F0;fontSize=11;" vertex="1" parent="1">
                    <mxGeometry x="920" y="210" width="120" height="60" as="geometry"/>
                </mxCell>
                <mxCell id="37" value="&lt;span style=&quot;text-align: start; font-size: 11px; font-family: Calibri, sans-serif;&quot;&gt;Модуль Интеграции с Внешними Системами&lt;/span&gt;&lt;span style=&quot;font-size: 11px; text-align: start;&quot;&gt;&lt;/span&gt;" style="rounded=0;whiteSpace=wrap;html=1;fontColor=#F0F0F0;fontSize=11;" vertex="1" parent="1">
                    <mxGeometry x="920" y="320" width="120" height="60" as="geometry"/>
                </mxCell>
                <mxCell id="38" value="" style="endArrow=classic;html=1;fontSize=11;fontColor=#F0F0F0;entryX=0;entryY=0.5;entryDx=0;entryDy=0;" edge="1" parent="1">
                    <mxGeometry width="50" height="50" relative="1" as="geometry">
                        <mxPoint x="880" y="239.5" as="sourcePoint"/>
                        <mxPoint x="920" y="239.5" as="targetPoint"/>
                    </mxGeometry>
                </mxCell>
                <mxCell id="39" value="" style="endArrow=classic;startArrow=classic;html=1;fontSize=11;fontColor=#F0F0F0;exitX=0.5;exitY=0;exitDx=0;exitDy=0;entryX=0.5;entryY=0;entryDx=0;entryDy=0;" edge="1" parent="1" source="4" target="35">
                    <mxGeometry width="50" height="50" relative="1" as="geometry">
                        <mxPoint x="290" y="80" as="sourcePoint"/>
                        <mxPoint x="980" y="80" as="targetPoint"/>
                        <Array as="points">
                            <mxPoint x="160" y="80"/>
                            <mxPoint x="980" y="80"/>
                        </Array>
                    </mxGeometry>
                </mxCell>
                <mxCell id="41" value="" style="endArrow=classic;html=1;fontSize=11;fontColor=#F0F0F0;entryX=0.5;entryY=0;entryDx=0;entryDy=0;" edge="1" parent="1" target="16">
                    <mxGeometry width="50" height="50" relative="1" as="geometry">
                        <mxPoint x="380" y="80" as="sourcePoint"/>
                        <mxPoint x="510" y="340" as="targetPoint"/>
                    </mxGeometry>
                </mxCell>
                <mxCell id="42" value="" style="endArrow=classic;html=1;fontSize=11;fontColor=#F0F0F0;entryX=0.5;entryY=0;entryDx=0;entryDy=0;" edge="1" parent="1">
                    <mxGeometry width="50" height="50" relative="1" as="geometry">
                        <mxPoint x="584" y="80" as="sourcePoint"/>
                        <mxPoint x="584" y="100" as="targetPoint"/>
                    </mxGeometry>
                </mxCell>
                <mxCell id="43" value="" style="endArrow=classic;html=1;fontSize=11;fontColor=#F0F0F0;entryX=0.5;entryY=0;entryDx=0;entryDy=0;" edge="1" parent="1">
                    <mxGeometry width="50" height="50" relative="1" as="geometry">
                        <mxPoint x="779.5" y="80" as="sourcePoint"/>
                        <mxPoint x="779.5" y="100" as="targetPoint"/>
                    </mxGeometry>
                </mxCell>
            </root>
        </mxGraphModel>
    </diagram>
</mxfile>